<svg xmlns="http://www.w3.org/2000/svg" height="800" width="1200" viewBox="-7.4251005 -1.7092325 64.350871 10.255395"><g fill-rule="evenodd"><path d="M29.49818.19562h2.98c1.5531 0 1.95236.99325 1.95236 1.66026 0 .93001-.42836 1.19301-.69612 1.32451.77893.30188 1.06627.94932 1.06627 1.59226 0 .51117-.2143.99774-.55033 1.3343-.3601.3601-.7059.58393-2.00607.58393h-2.7461zm1.3245 5.38004h1.63592c.64294 0 1.01785-.2921 1.01785-.94933 0-.56938-.4773-.78396-.9591-.78396h-1.6944v1.7333zm0-2.8432h1.39727c.52096 0 .93477-.2093.93477-.7255 0-.53076-.36989-.69136-.9689-.69136h-1.36314zM41.43723.01544c-.84243 0-2.99428.3699-2.99428 3.40836 0 .93028.1995 1.60682.50165 2.10344h-2.23997V.20038h-1.40229v6.48573h4.15317v-.55033c.67706.58923 1.52426.70115 1.98172.70115.83767 0 2.99958-.36989 2.99958-3.41339 0-3.03795-2.1619-3.4081-2.99958-3.4081zm0 5.6777c-.71569 0-1.66528-.45324-1.66528-2.26934 0-1.81134.9496-2.26404 1.66528-2.26404.7157 0 1.6653.4527 1.6653 2.26404 0 1.8161-.9496 2.26933-1.6653 2.26933z"/><path d="M46.68154 3.03433L48.01081.19562h1.48987l-2.12302 4.07537v2.41538H45.9317V4.25644L43.74043.19562h1.55337zM19.3022.19562h-1.56793l-1.81134 5.07841c.0439-.17012.0632-.35507.0632-.55959 0-1.09088-.81307-1.49013-1.69942-1.7092l-1.51447-.38948c-.26776-.0632-.64268-.20955-.64268-.71569 0-.58923.61357-.7792 1.12977-.7792 1.18825 0 1.2954.6866 1.32927.9787l1.30493-.0878c-.0291-.71094-.64268-2.03042-2.5318-2.0111-2.10847.0196-2.49793 1.27581-2.49793 1.99627 0 1.43166 1.11495 1.6653 2.02062 1.90897l.6231.16537c.69135.1606 1.17845.29712 1.17845.80354 0 .68633-.71597.84243-1.35864.84243-1.02738 0-1.28058-.69136-1.29037-1.05172l-1.18322.0585v-.01c0-1.16866-.92048-1.52902-1.80657-1.7481L7.51814 2.5762c-.26776-.0632-.6379-.17039-.6379-.6768 0-.58923.5453-.7792 1.0615-.7792 1.18824 0 1.2954.6866 1.32926.9787l1.30493-.1024c-.0291-.71094-.60378-2.01586-2.5318-1.99628-2.10846.0148-2.42967 1.27582-2.42967 1.99628 0 1.43166 1.2319 1.67481 2.14736 1.92352l.53552.14102c.6866.16061 1.2417.30692 1.2417.81333 0 .68633-.70116.84244-1.3441.84244-1.23666 0-1.43642-.69665-1.4462-1.05675l-1.25625.078v.0386L3.88091.19011H2.313L0 6.68061h1.42664l.45296-1.33906h2.39554l.41884 1.33905h1.47558L5.819 5.68736c.37967.58446 1.1393 1.14935 2.4736 1.14935.49661 0 2.06453-.13124 2.4638-1.44648.30187.66701 1.07605 1.44648 2.67334 1.44648.45746 0 1.83065-.11219 2.35664-1.1684l-.36989 1.02208h1.43166l.4527-1.33905h2.39554l.41884 1.33905h1.47531zM2.24053 4.22232l.83264-2.57096h.0196l.80327 2.57095zm15.42071.01l.83264-2.57096h.0196l.80354 2.57095zm6.92891 2.45406h-1.42689L25.47624.20065h1.56793l2.28838 6.48573h-1.47532l-.41883-1.33906h-2.39554zm.81783-2.46407h1.65047l-.80327-2.56592h-.0193z"/></g></svg>